<svg width="20" height="20" viewBox="0 0 20 20" fill="none" xmlns="http://www.w3.org/2000/svg">
<path d="M10 1.66675C5.40752 1.66675 1.66669 5.40758 1.66669 10.0001C1.66669 14.5926 5.40752 18.3334 10 18.3334C14.5925 18.3334 18.3334 14.5926 18.3334 10.0001C18.3334 5.40758 14.5925 1.66675 10 1.66675ZM10 3.33341C13.6918 3.33341 16.6667 6.30831 16.6667 10.0001C16.6667 13.3455 14.2211 16.0943 11.0156 16.5821V11.9874H12.9557L13.2601 10.0164H11.0156V8.93888C11.0156 8.11972 11.2825 7.39266 12.0492 7.39266H13.2796V5.67228C13.063 5.64312 12.6057 5.57951 11.7416 5.57951C9.93656 5.57951 8.8786 6.53284 8.8786 8.70451V10.0164H7.02313V11.9874H8.8786V16.5658C5.72526 16.0341 3.33335 13.3086 3.33335 10.0001C3.33335 6.30831 6.30825 3.33341 10 3.33341Z" fill="#3F64AE"/>
</svg>
