<svg width="40" height="40" viewBox="0 0 40 40" fill="none" xmlns="http://www.w3.org/2000/svg">
<g clip-path="url(#clip0_1_345)">
<path d="M26.2 16.8C24.9667 16.8333 23.7833 17.1 22.7 17.55L21.7833 16.1667L15.45 26.4667L10.4333 20.6L4.38332 30.2833L1.66666 28.3333L9.99999 15L15 20.8333L21.6667 10L26.2 16.8ZM30.5167 17.6333C29.45 17.1667 28.3 16.8833 27.1 16.8167L35.6333 3.33334L38.3333 5.30001L30.5167 17.6333Z" fill="#3F64AE"/>
<path d="M33.1333 30.7833C33.8667 29.6167 34.3 28.2667 34.3 26.8C34.3 22.65 30.95 19.3 26.8 19.3C22.65 19.3 19.3 22.65 19.3 26.8C19.3 30.95 22.65 34.3 26.7833 34.3C28.25 34.3 29.6167 33.8667 30.7667 33.1334L35.9667 38.3334L38.3333 35.9667L33.1333 30.7833ZM26.8 30.9667C24.5 30.9667 22.6333 29.1 22.6333 26.8C22.6333 24.5 24.5 22.6334 26.8 22.6334C29.1 22.6334 30.9667 24.5 30.9667 26.8C30.9667 29.1 29.1 30.9667 26.8 30.9667Z" fill="#3F64AE"/>
</g>
<defs>
<clipPath id="clip0_1_345">
<rect width="40" height="40" fill="white"/>
</clipPath>
</defs>
</svg>
