<svg width="32" height="32" viewBox="0 0 32 32" fill="none" xmlns="http://www.w3.org/2000/svg">
<path d="M14.3463 28.6406V26H26.2637V15.3768C26.2637 14.0686 25.9671 12.8092 25.3739 11.5985C24.7806 10.3879 23.9985 9.32388 23.0275 8.4065C22.0565 7.4891 20.9584 6.75818 19.7333 6.21373C18.5082 5.66929 17.2669 5.39707 16.0094 5.39707C14.7393 5.39707 13.4917 5.66929 12.2666 6.21373C11.0415 6.75818 9.94343 7.4891 8.97241 8.4065C8.00139 9.32388 7.2224 10.3879 6.63544 11.5985C6.04849 12.8092 5.75501 14.0686 5.75501 15.3768V24.3203H4.74917C3.9218 24.3203 3.21713 24.0293 2.63517 23.4474C2.0532 22.8654 1.76221 22.1607 1.76221 21.3333V18.3464C1.76221 17.7976 1.8813 17.3162 2.11947 16.9022C2.35763 16.4881 2.68298 16.1464 3.09554 15.8768L3.15787 14.5246C3.29505 12.7768 3.7436 11.1751 4.50351 9.71953C5.26342 8.26398 6.23251 7.01783 7.41077 5.9811C8.58904 4.94439 9.91949 4.13834 11.4021 3.56297C12.8847 2.98761 14.4173 2.69993 15.9999 2.69993C17.5922 2.69993 19.1297 2.98448 20.6123 3.55357C22.0949 4.12265 23.4229 4.92483 24.5963 5.9601C25.7698 6.99537 26.7365 8.23837 27.4964 9.6891C28.2563 11.1398 28.7048 12.7468 28.842 14.5101L28.9043 15.8101C29.3169 16.0478 29.6423 16.3831 29.8804 16.8159C30.1186 17.2488 30.2377 17.7108 30.2377 18.202V21.4562C30.2377 21.9714 30.1186 22.4681 29.8804 22.9464C29.6423 23.4246 29.3169 23.7763 28.9043 24.0015V26C28.9043 26.7255 28.6456 27.347 28.1282 27.8645C27.6108 28.3819 26.9893 28.6406 26.2637 28.6406H14.3463ZM11.9999 18.4464C11.6906 18.4464 11.4277 18.3382 11.2114 18.1219C10.9951 17.9056 10.8869 17.6372 10.8869 17.3167C10.8869 16.9962 10.9951 16.7333 11.2114 16.5281C11.4277 16.3229 11.6961 16.2203 12.0166 16.2203C12.3371 16.2203 12.6 16.3243 12.8052 16.5323C13.0104 16.7403 13.113 17.0073 13.113 17.3333C13.113 17.6427 13.009 17.9056 12.801 18.1219C12.593 18.3382 12.326 18.4464 11.9999 18.4464ZM19.9999 18.4464C19.6906 18.4464 19.4277 18.3382 19.2114 18.1219C18.9951 17.9056 18.8869 17.6372 18.8869 17.3167C18.8869 16.9962 18.9951 16.7333 19.2114 16.5281C19.4277 16.3229 19.6961 16.2203 20.0166 16.2203C20.3371 16.2203 20.6 16.3243 20.8052 16.5323C21.0104 16.7403 21.113 17.0073 21.113 17.3333C21.113 17.6427 21.009 17.9056 20.801 18.1219C20.593 18.3382 20.326 18.4464 19.9999 18.4464ZM7.73181 15.9971C7.64292 14.7739 7.83253 13.6321 8.30064 12.5717C8.76877 11.5113 9.39873 10.5964 10.1905 9.8268C10.9823 9.05722 11.897 8.45046 12.9347 8.0065C13.9724 7.56252 15.0164 7.34053 16.0666 7.34053C18.1139 7.34053 19.8799 8.00769 21.3644 9.342C22.849 10.6763 23.7154 12.3179 23.9637 14.2666C21.8497 14.2444 19.9763 13.7053 18.3434 12.6493C16.7106 11.5932 15.442 10.2063 14.5376 8.4884C14.1444 10.2382 13.3316 11.7824 12.0992 13.121C10.8668 14.4596 9.41103 15.4183 7.73181 15.9971Z" fill="white"/>
</svg>
