<svg width="40" height="40" viewBox="0 0 40 40" fill="none" xmlns="http://www.w3.org/2000/svg">
<g clip-path="url(#clip0_1_357)">
<path d="M36.6667 15V11.6667H33.3333V15H30V18.3333H33.3333V21.6667H36.6667V18.3333H40V15H36.6667Z" fill="#3F64AE"/>
<path d="M13.3333 20C17.0166 20 20 17.0167 20 13.3333C20 9.64999 17.0166 6.66666 13.3333 6.66666C9.64996 6.66666 6.66663 9.64999 6.66663 13.3333C6.66663 17.0167 9.64996 20 13.3333 20ZM13.3333 9.99999C15.1666 9.99999 16.6666 11.5 16.6666 13.3333C16.6666 15.1667 15.1666 16.6667 13.3333 16.6667C11.5 16.6667 9.99996 15.1667 9.99996 13.3333C9.99996 11.5 11.5 9.99999 13.3333 9.99999Z" fill="#3F64AE"/>
<path d="M13.3333 21.6667C8.88333 21.6667 0 23.9 0 28.3333V33.3333H26.6667V28.3333C26.6667 23.9 17.7833 21.6667 13.3333 21.6667ZM23.3333 30H3.33333V28.35C3.66667 27.15 8.83333 25 13.3333 25C17.8333 25 23 27.15 23.3333 28.3333V30Z" fill="#3F64AE"/>
<path d="M20.85 6.75C22.3833 8.51667 23.3333 10.8167 23.3333 13.3333C23.3333 15.85 22.3833 18.15 20.85 19.9167C24.1166 19.5 26.6666 16.7333 26.6666 13.3333C26.6666 9.93333 24.1166 7.16667 20.85 6.75Z" fill="#3F64AE"/>
<path d="M27.55 23.05C29.0334 24.4333 30 26.1667 30 28.3333V33.3333H33.3334V28.3333C33.3334 25.9167 30.6834 24.15 27.55 23.05Z" fill="#3F64AE"/>
</g>
<defs>
<clipPath id="clip0_1_357">
<rect width="40" height="40" fill="white"/>
</clipPath>
</defs>
</svg>
