<svg width="32" height="32" viewBox="0 0 32 32" fill="none" xmlns="http://www.w3.org/2000/svg">
<path d="M19.8116 28.4712C17.2309 28.4712 14.8416 27.7431 12.6435 26.2871C10.4454 24.8311 8.94495 22.7813 8.14204 20.1378H3.60437V17.4972H7.68554C7.6092 16.988 7.57345 16.5079 7.57827 16.0567C7.58311 15.6054 7.61887 15.0876 7.68554 14.503H3.60437V11.8436H8.14204C8.97006 9.28803 10.4768 7.26025 12.6623 5.76025C14.8478 4.26025 17.2309 3.51025 19.8116 3.51025C21.4706 3.51025 23.0131 3.80276 24.4392 4.38779C25.8653 4.97281 27.1841 5.80929 28.3957 6.89722L26.4913 8.76825C25.5425 7.93056 24.4983 7.28805 23.3587 6.84072C22.2191 6.39337 21.0367 6.16969 19.8116 6.16969C17.8986 6.16969 16.1281 6.6965 14.5 7.75012C12.872 8.80374 11.7276 10.1682 11.0667 11.8436H20.2638V14.503H10.3406C10.2546 15.0025 10.2085 15.4764 10.2022 15.9248C10.1959 16.3731 10.2421 16.8972 10.3406 17.4972H20.2638V20.1378H11.0102C11.7088 21.8885 12.872 23.275 14.5 24.2972C16.1281 25.3194 17.8986 25.8306 19.8116 25.8306C21.002 25.8306 22.1701 25.618 23.316 25.1929C24.4619 24.7677 25.5314 24.1141 26.5247 23.232L28.3957 25.0842C27.3174 26.118 26.0375 26.941 24.5558 27.5531C23.0742 28.1651 21.4928 28.4712 19.8116 28.4712Z" fill="#BDBEC0"/>
</svg>
